<?xml-stylesheet type="text/css" href="../../style.css" ?>
<!-- Generator: Adobe Illustrator 18.1.1, SVG Export Plug-In . SVG Version: 6.00 Build 0)  -->
<svg version="1.1" id="Capa_1" xmlns="http://www.w3.org/2000/svg" xmlns:xlink="http://www.w3.org/1999/xlink" x="0px" y="0px"
	 viewBox="0 0 232.153 232.153" style="enable-background:new 0 0 232.153 232.153;" xml:space="preserve">
		<g id="play" viewBox="0 0 232.153 232.153">
			<path style="fill-rule:evenodd;clip-rule:evenodd;" d="M203.791,99.628L49.307,2.294c-4.567-2.719-10.238-2.266-14.521-2.266
				c-17.132,0-17.056,13.227-17.056,16.578v198.94c0,2.833-0.075,16.579,17.056,16.579c4.283,0,9.955,0.451,14.521-2.267
				l154.483-97.333c12.68-7.545,10.489-16.449,10.489-16.449S216.471,107.172,203.791,99.628z"/>
		</g>
		<g id="save" viewBox="0 0 241.629 241.629">
			<path style="fill-rule:evenodd;clip-rule:evenodd;" d="M120.815,80.543h62.644V35.797h-62.644V80.543z M58.17,241.629h125.289
				v-107.39H58.17V241.629z M237.154,73.828l0-73.828v40.272L198.374,0H30.328v0.023c-2.032-0.014-4.174-0.022-6.464-0.022
				c-10.708,0-19.39,9.015-19.39,20.136v201.357c0,11.12,8.682,20.135,19.39,20.135c2.508,0,4.644-0.028,6.464-0.108v0.107h9.944
				v-4.795c0.536-2.667,0-6.765,0-13.103v-89.492c0-13.846,4.886-17.898,17.898-17.898h125.289c13.292,0,17.898,4.612,17.898,17.898
				v107.39h9.944v-0.119c1.838,0.123,3.972,0.119,6.462,0.119c10.71,0,19.391-9.016,19.391-20.135V73.831
				C237.154,73.83,237.154,73.829,237.154,73.828z M201.358,71.594c0,13.566-4.606,17.898-17.898,17.898H67.119
				c-13.291,0-17.897-4.891-17.897-17.898V44.747c0-13.567,4.605-17.898,17.897-17.898h116.34c13.572,0,17.898,4.332,17.898,17.898
				V71.594z"/>
		</g>
		<g id="settings" viewBox="0 0 268.765 268.765" >
			<path style="fill-rule:evenodd;clip-rule:evenodd;" d="M267.92,119.461c-0.425-3.778-4.83-6.617-8.639-6.617
				c-12.315,0-23.243-7.231-27.826-18.414c-4.682-11.454-1.663-24.812,7.515-33.231c2.889-2.641,3.24-7.062,0.817-10.133
				c-6.303-8.004-13.467-15.234-21.289-21.5c-3.063-2.458-7.557-2.116-10.213,0.825c-8.01,8.871-22.398,12.168-33.516,7.529
				c-11.57-4.867-18.866-16.591-18.152-29.176c0.235-3.953-2.654-7.39-6.595-7.849c-10.038-1.161-20.164-1.197-30.232-0.08
				c-3.896,0.43-6.785,3.786-6.654,7.689c0.438,12.461-6.946,23.98-18.401,28.672c-10.985,4.487-25.272,1.218-33.266-7.574
				c-2.642-2.896-7.063-3.252-10.141-0.853c-8.054,6.319-15.379,13.555-21.74,21.493c-2.481,3.086-2.116,7.559,0.802,10.214
				c9.353,8.47,12.373,21.944,7.514,33.53c-4.639,11.046-16.109,18.165-29.24,18.165c-4.261-0.137-7.296,2.723-7.762,6.597
				c-1.182,10.096-1.196,20.383-0.058,30.561c0.422,3.794,4.961,6.608,8.812,6.608c11.702-0.299,22.937,6.946,27.65,18.415
				c4.698,11.454,1.678,24.804-7.514,33.23c-2.875,2.641-3.24,7.055-0.817,10.126c6.244,7.953,13.409,15.19,21.259,21.508
				c3.079,2.481,7.559,2.131,10.228-0.81c8.04-8.893,22.427-12.184,33.501-7.536c11.599,4.852,18.895,16.575,18.181,29.167
				c-0.233,3.955,2.67,7.398,6.595,7.85c5.135,0.599,10.301,0.898,15.481,0.898c4.917,0,9.835-0.27,14.752-0.817
				c3.897-0.43,6.784-3.786,6.653-7.696c-0.451-12.454,6.946-23.973,18.386-28.657c11.059-4.517,25.286-1.211,33.281,7.572
				c2.657,2.89,7.047,3.239,10.142,0.848c8.039-6.304,15.349-13.534,21.74-21.494c2.48-3.079,2.13-7.559-0.803-10.213
				c-9.353-8.47-12.388-21.946-7.529-33.524c4.568-10.899,15.612-18.217,27.491-18.217l1.662,0.043
				c3.853,0.313,7.398-2.655,7.865-6.588C269.044,139.917,269.058,129.639,267.92,119.461z M134.595,179.491
				c-24.718,0-44.824-20.106-44.824-44.824c0-24.717,20.106-44.824,44.824-44.824c24.717,0,44.823,20.107,44.823,44.824
				C179.418,159.385,159.312,179.491,134.595,179.491z"></path>
		</g>
		<g id="person" viewBox="0 0 286.374 286.374">
			<path style="fill-rule:evenodd;clip-rule:evenodd;" d="M254.874,257.736c-0.888-46.116-7.06-53.457-39.6-72.418
				c-13.533-7.887-23.461-6.88-41.937,9.815l-0.013,0.015l-10.324,9.327c-0.368,0.335-11.498,10.305-19.814,10.305
				c-8.315,0-19.446-9.97-19.815-10.305l-10.323-9.327l-0.013-0.015c-18.475-16.696-28.403-17.703-41.935-9.815
				c-32.541,18.961-38.713,26.302-39.6,72.418c-0.015,0.322-0.04,14.04-0.015,14.319c0.424,7.523,6.364,14.319,13.82,14.319h195.764
				c7.455,0,13.395-6.796,13.82-14.319C254.915,271.776,254.889,258.058,254.874,257.736z M143.187,170.145
				c36.247,0,67.12-32.623,67.12-70.894v-18.18c-31.542-7.81-67.12-24.356-67.12-24.356v14.179c-16.373,0-29.967-4.32-41.202-10.488
				c-6.582-3.988-10.514-8.136-8.927-11.887c2.674-6.342,9.019-3.545,16.15,0c0.289,0.145,0.525,0.062,0.8,0.132
				c5.9,3.004,12.323,5.572,19.756,6.902V34.975l13.424,7.561c11.313,5.262,43.22,17.488,66.66,23.733
				C207.448,30.074,177.94,0,143.187,0c-22.744,0-43.366,12.876-55.583,31.916c0,0-4.379,7.63-6.489,12.892
				c-3.186,8.141-5.047,16.933-5.047,26.086v28.358C76.068,137.522,106.954,170.145,143.187,170.145z M183.458,116.339
				c0,0-12.913,26.846-40.271,26.846c-27.345,0-40.271-26.846-40.271-26.846H183.458z"/>
		</g>
</svg>